{"title":"Formula 1 2013 Chinese Grand Prix Race - Practice 2","uid":8365813,"size":996426735,"categoryP":"video","categoryS":"tv_shows","magnet":"?xt=urn:btih:059ab14a0e1dfbe624f073a1c5de0c83a9536650&amp;dn=Formula+1+2013+Chinese+Grand+Prix+Race+-+Practice+2&amp;tr=udp%3A%2F%2Ftracker.openbittorrent.com%3A80&amp;tr=udp%3A%2F%2Fopen.demonii.com%3A1337&amp;tr=udp%3A%2F%2Ftracker.coppersurfer.tk%3A6969&amp;tr=udp%3A%2F%2Fexodus.desync.com%3A6969","seeders":1,"leechers":0,"uploader":"IAMH67","files":4,"time":1365764217,"description":"F1 : Grand Prix - China - Free Practice 2\n \nSource : BBC 2 \n   \nDate: Friday 12th April 2013 \n\nTime: 06:55 to 08:35 (1 hour and 40 minutes long)\n\n\n Chinese Grand Prix - Practice 2.\n\n Continued coverage from the Shanghai International Circuit as the 11 constructors and their drivers continue to get to grips with their new surroundings. \n\nCapped by :- Hannibal\n\nTechnical Information:\n\n\nVideo\nID                             : 0\nFormat                         : MPEG-4 Visual\nFormat profile                 : Advanced Simple@L5\nFormat settings, BVOP          : 2\nFormat settings, QPel          : No\nFormat settings, GMC           : No warppoints\nFormat settings, Matrix        : Default (H.263)\nMuxing mode                    : Packed bitstream\nCodec ID                       : XVID\nCodec ID/Hint                  : XviD\nDuration                       : 1h 39mn\nBit rate                       : 1 204 Kbps\nWidth                          : 608 pixels\nHeight                         : 336 pixels\nDisplay aspect ratio           : 16:9\nFrame rate                     : 25.000 fps\nColor space                    : YUV\nChroma subsampling             : 4:2:0\nBit depth                      : 8 bits\nScan type                      : Progressive\nCompression mode               : Lossy\nBits/(Pixel*Frame)             : 0.236\nStream size                    : 853 MiB (90%)\nWriting library                : XviD 1.2.1 (UTC 2008-12-04)\n\nAudio\nID                             : 1\nFormat                         : MPEG Audio\nFormat version                 : Version 1\nFormat profile                 : Layer 3\nMode                           : Joint stereo\nMode extension                 : MS Stereo\nCodec ID                       : 55\nCodec ID/Hint                  : MP3\nDuration                       : 1h 39mn\nBit rate mode                  : Constant\nBit rate                       : 128 Kbps\nChannel(s)                     : 2 channels\nSampling rate                  : 48.0 KHz\nCompression mode               : Lossy\nStream size                    : 90.7 MiB (10%)\nAlignment                      : Aligned on interleaves\nInterleave, duration           : 40 ms (1.00 video frame)\nInterleave, preload duration   : 480 ms\n\n\n\nScreens:\n &lt;a href=&quot;\nhttp://i.imgur.com/FM2JwHr.jpg&quot; rel=&quot;nofollow&quot; target=&quot;_NEW&quot;&gt;\nhttp://i.imgur.com/FM2JwHr.jpg&lt;/a&gt;\n &lt;a href=&quot;\nhttp://i.imgur.com/rXJwptx.jpg&quot; rel=&quot;nofollow&quot; target=&quot;_NEW&quot;&gt;\nhttp://i.imgur.com/rXJwptx.jpg&lt;/a&gt;\n\n","torrent":{"xt":"urn:btih:059ab14a0e1dfbe624f073a1c5de0c83a9536650","amp;dn":"Formula+1+2013+Chinese+Grand+Prix+Race+-+Practice+2","amp;tr":["udp%3A%2F%2Ftracker.openbittorrent.com%3A80","udp%3A%2F%2Fopen.demonii.com%3A1337","udp%3A%2F%2Ftracker.coppersurfer.tk%3A6969","udp%3A%2F%2Fexodus.desync.com%3A6969"],"infoHash":"059ab14a0e1dfbe624f073a1c5de0c83a9536650","infoHashBuffer":{"type":"Buffer","data":[5,154,177,74,14,29,251,230,36,240,115,161,197,222,12,131,169,83,102,80]},"announce":[],"urlList":[]}}